<?xml version="1.0" encoding="utf-8"?>
<!-- Generator: Adobe Illustrator 20.1.0, SVG Export Plug-In . SVG Version: 6.00 Build 0)  -->
<svg version="1.1" baseProfile="tiny" id="Слой_1"
	 xmlns="http://www.w3.org/2000/svg" xmlns:xlink="http://www.w3.org/1999/xlink" x="0px" y="0px" viewBox="0 0 250 290"
	 xml:space="preserve">
<g>
	<path fill="#466182" d="M185,1c-1.4,2.8-1.6,5.4,0.5,8.2c4.2,5.7,3.7,12.4,3.4,19c1.2,0.1,1.4-1.8,2.5-1c0.7,0.5,0.7,1.5,0.3,2.3
		c-2.7,5.3-3.9,11.4-8.7,15.5c-2.1,1.7-1.2,3.6,0.4,4.9c4.9,3.9,3.8,8.4,1.2,12.6c-1.3,2-1.6,3.8-1.6,6c-0.1,10.4-2.6,20.4-5,30.4
		c-1.8,7.4-8.1,5.1-12.7,5.9c-4.6,0.8-9.4,0.2-15.1,0.2c7.6,7.5,16.1,9.7,25,11c10.2,1.5,20.3,3.3,30.4,5c3.3,0.5,2.7,3.1,2.3,5.1
		c-1,5.1-2.3,10.1-3.5,15.2c-0.3,1.3-0.9,2.7,0.5,3.6c4.9,3.2,3.1,7.5,1.5,11.2c-1.6,3.8-3.4,7.4-6.6,10.6
		c-2.6,2.6-2.8,7.8-3.6,11.9c-2,10.4-1.9,10.4-12.2,10.4c-3,0-6,0-9,0c-5.5,0-8.3,2.9-8.9,8.2c-1.9,16.5-3.2,33.1-4.2,49.6
		c-0.4,6.4-0.3,12.9-0.8,19.3c-0.3,3.4,1.4,5.2,4,6.8c1.1,0.7,2.5,1,3.4,1.9c1.7,1.7,4.6,3,3.6,6c-0.9,2.8-3.4,3.7-6.2,4.1
		c-3.6,0.6-4.4,4.9-7.7,6c-3.7,0-7.3,0-11,0c-6.2-1.4-8.5-8.3-14.3-10.2c-1.1-0.4-0.7-1.8-0.6-2.7c2.3-14.2-0.6-28.2-0.9-42.4
		c-0.2-7.5-0.6-14.9-1.3-22.3c-0.6-6.4,1.1-13.5-2.1-18.9c-4.6-7.8-2.1-15.6-2.6-23.3c-0.6-9.7-2.5-19.2-4.3-28.4
		c-6.3,4.3-8.9,12.2-15.9,15.7c-5.2,2.6-8.7,1.9-12.9-2c-6.7-6.2-11.9-13.6-17.5-20.7c-1.2-1.6-1.8-1.8-3.8-1.3
		c-8.3,1.9-16.4,1.5-23.7-3.6c-0.9-0.7-1.8-1.4-2.7-2.2c-0.7-0.7-1.7-1.4-1-2.5c0.5-0.9,1.4-1.4,2.5-1.3c1.8,0.1,3.7-0.1,5.5,0.2
		c5.3,1,8.9-0.7,11.3-6c-3.2-0.4-6.4-0.9-9.3-2.1c-0.8-0.4-2,0.1-2.2-1.4c-0.2-1.7,1.3-1.9,2.1-2.2c1.2-0.5,2.6-0.4,3.9-0.5
		c3.4-0.2,6.8,0.2,10.3-0.9c3.8-1.2,6.1,2.7,9.3,3.7c3.5,1.1,6.7,2.1,6.4,6.7c0,0.3,0.1,0.9,0.2,0.9c7.8,1.1,8.3,9.1,12.9,13.3
		c1.4,1.3,2.2,3.2,3.3,4.9c4.1-7.6,8.1-15.1,12.1-22.7c0.7-1.3,1.2-2.4,2.9-3c4.8-1.5,9.3-3.8,13.6-6.4c7.5-4.5,8.5-10.5,2.1-16.7
		c-2.8-2.8-5.2-5.9-7.4-9.2c-2.7-4-5-7.7-10.7-8.9c-5.7-1.1-9.4-9.5-8.2-15.3c0.6-3.1,3.7-3.4,5.7-5c-7-13.7-4.1-26.6,5.5-37.1
		c7-7.7,16.8-12.3,27.5-14.6c5.5-1.2,10.2,0.8,15.2,1.5c8.3,1.2,16.6,1.8,24.1-3.4C183,1,184,1,185,1z"/>
</g>
</svg>
