<?xml version="1.0" encoding="utf-8"?>
<!-- Generator: Adobe Illustrator 20.1.0, SVG Export Plug-In . SVG Version: 6.00 Build 0)  -->
<svg version="1.1" baseProfile="tiny" id="Слой_1"
	 xmlns="http://www.w3.org/2000/svg" xmlns:xlink="http://www.w3.org/1999/xlink" x="0px" y="0px" viewBox="0 0 100 100"
	 xml:space="preserve">
<g>
	<path fill="#374E71" d="M97,31.1c3.5,11.8-3.2,21.4-13.4,30.4c-11.3,10-21.5,21.3-32.3,32c-4.8,4.7-6.9,4.7-11.7-0.1
		c-10.5-10.5-21-20.9-31.4-31.4c-4.5-4.5-4.5-6.7,0.1-11.3c14-14,28.1-28,42-42.1c2.5-2.5,5.2-3.8,8.8-3.7C69,5.1,78.8,5,88.6,5
		c5.7,0,8.3,2.6,8.3,8.2C97.1,18.4,97,23.5,97,31.1z M73.8,9c-4.8,0-9.7,0.1-14.5,0c-2.5-0.1-4.4,0.8-6.2,2.6
		C39.2,25.5,25.4,39.4,11.4,53.2c-2.4,2.4-2.7,3.9-0.1,6.4c10.5,10.2,20.9,20.6,31.1,31.1c2.5,2.6,4,2.4,6.4-0.1
		c13.8-14,27.7-27.9,41.6-41.8c1.5-1.5,2.6-2.9,2.6-5.2c-0.1-10.2,0-20.3,0-30.5c0-2.9-1.3-4.3-4.2-4.2C83.8,9,78.8,9,73.8,9z"/>
	<path fill="#425979" d="M46.4,46.4c1.3,4.2,4.2,5.6,6,7.8c0.5,0.7,1.9,1.3,0.8,2.4c-0.7,0.7-1.8,0.7-2.7-0.2
		c-0.7-0.7-1.4-1.5-2.2-2.1c-1.4-1.1-2.4-3.7-4.1-3.1c-2.2,0.8-2.7,3.6-3.1,5.9c-0.7,4.4,2.4,7.6,8.7,9.2c-1.2,3.4-3.2,3.6-6,2
		c-6.5-3.7-8.5-10.5-5.2-17.6c0.7-1.6,3.1-3,0.9-5.2c-0.9-0.9-0.2-1.6,0.8-1.6c2.2,0.1,4.6,0.8,2.8-2.9c-0.3-0.5,1-1.2,1.4-1
		c3.2,2.1,5.6-0.7,8.3-1.4c6.9-1.8,13.9,1.9,15.8,8.6c0.5,1.8,0.3,2.6-1.7,3.3c-2.3,0.8-2-0.9-2.3-2c-1-3.5-2.8-6.1-6.7-6.3
		c-2.6-0.2-5.6,0.3-6.8,2.3c-1,1.8,2.1,2.9,3.2,4.4c0.8,1,2,1.8,2.8,2.9c0.5,0.7,2.6,1.1,0.9,2.6c-1.2,1-2.1,0.2-3-0.6
		C52.6,51.5,50.8,48.4,46.4,46.4z"/>
	<path fill="#425979" d="M78.9,31c-4.3,0-7.9-3.6-7.9-7.9c0-4.5,3.8-8.2,8.3-8.1c4.3,0.2,7.8,3.9,7.7,8.2C86.9,27.5,83.2,31,78.9,31
		z M82.9,23.1c-0.2-2.3-1.3-3.8-3.6-4c-2.5-0.2-4.1,1.2-4.2,3.7c-0.1,2.5,1.5,4,4,4C81.4,26.8,82.6,25.3,82.9,23.1z"/>
</g>
</svg>
