<?xml version="1.0" encoding="utf-8"?>
<!-- Generator: Adobe Illustrator 20.1.0, SVG Export Plug-In . SVG Version: 6.00 Build 0)  -->
<svg version="1.1" baseProfile="tiny" id="Слой_1"
	 xmlns="http://www.w3.org/2000/svg" xmlns:xlink="http://www.w3.org/1999/xlink" x="0px" y="0px" viewBox="0 0 250 290"
	 xml:space="preserve">
<g>
	<path fill="#466182" d="M62,1c1,2.9,4.3,3.2,6.1,3.3c3.8,0.3,6.6,3.4,10.4,2.8c0.6-0.1,1.9,0.5,2,1.1c1.5,5,4.6,2.4,7.1,1.5
		c1-0.4,1.8-0.7,2.6,0.2c0.9,1,1,2.1,0.2,3.2c-1.1,1.6-2.5,3.1-3.6,4.7c-1.1,1.7-2.3,3.2-1.4,5.8c1.5,4.4-1.6,11-5.4,13.7
		c-2,1.4-0.9,2.9-0.3,4.6c2,5.5,5.7,10,7.5,15.7c1.7,5.3-0.4,6.9-5.2,8c5.4,4.2,1.7,9.3,1.7,14c0,0.3-0.3,0.6-0.5,0.9
		c-1.1,3.2-0.3,8.3-3.2,9.2c-4.1,1.3-8.9,2.8-13.8,0.9c-0.4,5.2-1.7,10.4,3.6,14.2c1.1,0.8,2.2,2.2,2.5,3.5
		c2.7,11,13.6,10.7,21,15.1c0.5,0.3,0.8,0.6,1.5-0.1c7.9-7.1,16-14,23.9-21.1c2.3-2,5.1-5.4,5.2-9.7c0.2-4.3,2.9-6.7,7.6-6.3
		c4.6,0.3,8.5,1.6,12,4.8c2.9,2.7,7.3,1,10.9,2c8.4,2.4,16.4,5.4,24.3,9.3c2.5,1.3,6.3,0.1,9.5-0.1c1.1-0.1,0.7-0.8,0.7-1.7
		c-0.1-30-0.1-60-0.2-90c0-1.2,0-2.3,0-3.5c-0.1-1.6,0.8-1.9,2.2-1.9c1.2,0,1.9,0.5,1.8,1.8c-0.5,4,2,5.6,4.8,7.8
		c4.6,3.5,7.4,7.9,5.3,14.5c-3.3,10.6-0.9,20,7.8,27.6c4.6,4,9,8.5,12.9,13.2c6,7.2,7.7,16.3,10,25.1c3,11.5,4.8,23.1,4.2,35.1
		c-0.2,4.6-1.9,7.4-5.9,9.6c-9.9,5.4-20.8,8.5-31.1,12.8c-6,2.5-9.4,5.6-8.1,12.4c0.2,1.3,0,2.7,0,4c0,1.1-0.8,1.3-1.7,1.3
		c-1,0-2.1,0.1-2.2-1.4c-0.1-1.2-0.1-2.3-0.1-3.5c0-17,0-34,0-51c0-2.6-0.3-5.2,0.9-7.4c-7.9-3.3-14.6,1.4-21,3.8
		c-7.7,2.9-15.1,6.8-23.3,8.4c-2.2,0.4-2.3,0.6-1.9,2.9c1.3,7.3-1.1,13.9-5.1,20c-0.8,1.1-2.1,1.7-3,1.1c-3-1.8-7.1-1.6-9.2-5
		c-1.7-2.8-3.4-2.9-6.1-0.8c-8.7,6.4-17.5,12.4-26.4,18.6c-7.1,4.9-12.3,4.1-18-2.7c-0.3-0.3-0.7-0.5-1.5-1.2
		c-0.7,8.7-1.8,16.9-3.4,25c-0.7,3.7-1.6,7.3-2,11.1c-1.6,17,0.5,33.8,2,50.7c1.1,12.4,2,25,0.5,37.2c-0.6,4.8,2.6,5.6,3.5,8.4
		c0.5,1.5,1.3,0.6,2.3,0.4c3.5-0.9,7-1.6,10.5-2.2c2.2-0.4,4.9-0.3,5.8,1.5c0.9,1.8-1.7,2.9-2.9,4.1c-1.3,1.3-3.1,2.2-4.7,3.3
		c-4,0-8,0-12,0c-3.1-1.9-6-3.3-10-1.3c-2.4,1.2-6.3,1.3-8.4-1.1c-1.6-1.9,0.7-4.1,1.2-6.2c0.1-0.3-0.3-0.8-0.6-1.6
		c-3.7,4.5-8.6,6.9-13.8,6.1c-5.4-0.8-10.1-1.4-15,1.8c-2.9,1.9-7-0.6-6.3-3.3c1-4.3,0-8.8,2-13c1.2-2.4,2.1-5.1,3-7.7
		c4.4-13.8,8.5-27.7,9.5-42.2c0.6-8.4,3-17,1.1-25.2c-3.8-16.5-2.9-33.3-4.6-50c-0.8-8.2-1-16.5,0.7-24.8c1.8-8.3,3.5-16.6,9.4-23.1
		c3.9-4.3,4.4-9.1,3.2-14.2c-1.8-7.7-7-13.8-10.4-20.8c-0.4-0.9-0.8-1.3-1.8-1.3c-7.8-0.2-8.2-7.7-11.8-12c-0.3-0.3-0.5-1-0.4-1.3
		c1.6-3.2-1-5.7-2.2-7.8c-2.8-4.8-6.2-8.5-6-15.1c0.2-5.7,2.6-9.8,5.6-13.4c3.3-4.1,10.2-3.7,13.7-8.3c0.3-0.4,2.4-2,3.5-0.7
		c3.4,4,7.5,1.3,10.4,0.2c3.1-1.1,6-2.6,9.4-2.8c0.2,0,0.3-0.5,0.4-0.8C58,1,60,1,62,1z M63.1,233.6c-0.7-10.1-1.2-20.4-2.2-30.7
		c-0.8-8.9-4.5-11.4-13.2-9.8c-1.8,0.3-2.6,1.1-2.7,2.9c-0.6,8.4-1.4,16.7-2,25.1c-0.4,5.8-1.1,11.5-1.4,17.3
		c-0.7,11.8-2.1,23.7-4.5,35.4c-0.9,4.4,2.2,6.8,6.7,5.5c4.3-1.3,8.3-3.7,12.9-3.7c1.2,0,1.2-0.3,1.3-1.1
		C60.1,260.8,62.7,247.5,63.1,233.6z M120.3,114.5c-2.6,4.3-5.9,5.7-8.4,8c-4,3.6-7.9,7.7-12.6,10.1c-6.4,3.4-13,1-19.3-1.7
		c-1.2-0.5-2.7-2.1-3.8-0.1c-0.7,1.3,0,2.7,1.1,4c2.3,2.7,4.9,5.4,6.4,8.6c2,4.3,3.8,3.8,7.1,1.3c10.5-7.7,20.5-16,32-22.4
		C121.3,120.6,121.1,118.3,120.3,114.5z"/>
</g>
</svg>
