<?xml version="1.0" encoding="utf-8"?>
<!-- Generator: Adobe Illustrator 20.1.0, SVG Export Plug-In . SVG Version: 6.00 Build 0)  -->
<svg version="1.1" baseProfile="tiny" id="Слой_1"
	 xmlns="http://www.w3.org/2000/svg" xmlns:xlink="http://www.w3.org/1999/xlink" x="0px" y="0px" viewBox="0 0 100 100"
	 xml:space="preserve">
<g>
	<path fill="#384F72" d="M49,101c-0.3-0.9-0.9-1.8-1-2.8C47.3,91,47.4,91,40.2,91c-6.5,0-13-0.1-19.5,0.1c-3.3,0.1-4.8-0.7-4.8-4.4
		c0.1-25.1,0.1-50.3,0-75.4c0-3.3,1.1-4.3,4.3-4.3C40.1,7,59.9,7,79.7,6.9c3.2,0,4.4,1,4.4,4.3c-0.1,25.1-0.1,50.3,0,75.4
		c0,3.1-0.9,4.4-4.2,4.5c-7.2,0-7.2,0.2-7.9,7.2c-0.1,0.9-0.6,1.8-1,2.8c-0.7,0-1.3,0-2,0c-8.8-8-8.8-8-17.7-0.4
		c-0.1,0.1-0.2,0.3-0.3,0.4C50.3,101,49.7,101,49,101z M80,49.5c0-11.5-0.1-23,0.1-34.4c0.1-3.2-0.8-4.2-4.1-4.2
		c-17.3,0.2-34.6,0.2-51.9,0c-3.3,0-4.1,0.9-4.1,4.1C20.1,33.9,20,52.7,20,71.5c0,5-1.7,11.6,0.8,14.5c2.9,3.3,9.7,1,14.8,1
		c4.1,0,9.4,1.9,11.9-0.9c2.3-2.6,0-7.6-0.3-11.5c-0.1-0.8-0.3-1.6-0.5-2.4C45.9,69,48.8,60.8,51.9,60c3.1-0.8,6-4,9.2-2.6
		C65,59,70,59.1,71.7,65c0.8,2.8,2.4,4.7,1.4,8.1c-1,3.2-0.6,6.8-1.1,10.3c-0.5,3.3,1.1,3.9,4,3.8c2.6-0.1,4.2-0.1,4.2-3.6
		C79.8,72.2,80,60.8,80,49.5z M51.6,74.3c0,3,5.1,6.1,10.7,6.4c2,0.1,7.6-7.9,7.5-10.8c-0.1-1.8-8.2-8.8-10-8.6
		C54.4,61.7,51.6,66,51.6,74.3z M67.9,82.9c-5.4,2.9-10.5,2.4-15.6,0.3c0,3.5,0,7,0,12c5.3-7.5,10.4-6.6,15.6-0.2
		C67.9,90.2,67.9,86.8,67.9,82.9z"/>
	<path fill="#384F72" d="M50.3,37c-5.8,0-11.6,0-17.4,0c-1.5,0-3,0.2-2.9-2.2c0.1-2.1,1.5-1.8,2.8-1.8c11.5,0,22.9,0,34.4,0
		c1.5,0,3-0.2,2.9,2.2c-0.1,2.1-1.5,1.8-2.8,1.8C61.6,37,56,37,50.3,37z"/>
	<path fill="#384F72" d="M48.5,21c5,0,10,0,14.9,0c1.4,0,2.6,0,2.6,2c0,2-1.2,2-2.6,2c-10.3,0-20.6,0-30.9,0c-1.4,0-2.6,0-2.6-2
		c0-2,1.2-2,2.6-2C37.9,21,43.2,21,48.5,21z"/>
	<path fill="#384F72" d="M45.4,45c4,0,8,0,12,0c1.4,0,2.6-0.1,2.6,2c0,2-1.1,2.1-2.5,2.1c-8.3,0-16.6,0-24.9,0c-1.4,0-2.6,0.1-2.6-2
		c0-2,1.1-2.1,2.5-2.1C36.8,45,41.1,45,45.4,45z"/>
	<path fill="#384F72" d="M35.8,61c-1,0-2,0-3,0c-1.5,0-3,0.2-2.9-2.2c0.1-2.1,1.4-1.8,2.7-1.8c2.1,0,4.3,0,6.4,0
		c1.5,0,3-0.2,2.9,2.2c-0.1,2.1-1.4,1.8-2.7,1.8C38.2,61,37,61,35.8,61z"/>
</g>
</svg>
