<?xml version="1.0" encoding="utf-8"?>
<!-- Generator: Adobe Illustrator 20.1.0, SVG Export Plug-In . SVG Version: 6.00 Build 0)  -->
<svg version="1.1" baseProfile="tiny" id="Слой_1"
	 xmlns="http://www.w3.org/2000/svg" xmlns:xlink="http://www.w3.org/1999/xlink" x="0px" y="0px" viewBox="0 0 100 100"
	 xml:space="preserve">
<g>
	<path fill="#3A5173" d="M50.9,97c-13.7,0-27.3-0.2-41,0.1c-4,0.1-4.4-1.5-3.8-4.7c1.2-6,3.9-11,8.9-14.5c2.8-2,5.8-4,9-5.2
		c4.4-1.7,5.4-3.4,2.4-7.6c-2.7-3.8-3.6-8.5-3.6-13.3c0-12.3,0-24.6,0-37C23,7.8,25.8,5,33.1,5c12,0,24,0,36,0C76.2,5,79,7.8,79,15
		c0,11.5-0.1,23,0.1,34.5c0.1,6.5-1.2,12.6-4.9,18c-1.5,2.1-1.1,2.9,1.2,4c3.7,1.8,7.4,3.7,10.9,6c5.6,3.7,8.6,9.1,9.7,15.7
		c0.5,3-0.2,4-3.5,4C78.6,96.9,64.7,97,50.9,97z M75,34.1c0-6.3-0.1-12.7,0-19c0.1-4.1-1.4-6.2-5.8-6.1C57.1,9.1,45,9.1,32.8,9
		c-4.3,0-5.9,1.8-5.8,6c0.1,12.3-0.1,24.6,0.1,37c0.2,13.6,9.9,22.9,23.7,23c14,0.1,24-9.3,24.3-22.9C75.1,46.1,75,40.1,75,34.1z
		 M51,93c11.8,0,23.6,0,35.4,0c5.3,0,5.8-0.7,3.4-5.5c-1.5-3.1-3.8-5.5-6.7-7.2c-3.4-2-7.1-3.7-10.5-5.7c-2.3-1.3-4-1.1-6.3,0.3
		c-8.9,5.3-18.7,6.2-27.6,1.4c-5.8-3.1-9.7-1.8-14.4,0.8c-5.1,2.8-10.1,5.7-12.7,11.4c-1.4,3.2-1.3,4.7,2.9,4.6
		C26.8,92.8,38.9,93,51,93z"/>
	<path fill="#354D70" d="M50.1,23c6.2,0,11.1,0.1,15.9,0c2.4-0.1,3.4,0.7,3.1,3.1c0,0.2,0,0.3,0,0.5c-0.1,5.3,1.8,12.2-0.8,15.4
		c-2.7,3.3-9.9,0.9-15.2,1c-5.6,0.2-11.3-0.1-16.9,0.1c-2.4,0.1-3.4-0.7-3.1-3.1c0-0.2,0-0.3,0-0.5c0.1-5.3,0.2-10.6,0.3-15.9
		C39.3,22.2,45.4,23.6,50.1,23z M51,39c1.8,0,3.6,0,5.5,0c9.5,0,9.4,0,8.6-9.4c-0.2-1.9-0.6-2.6-2.6-2.6c-7.6,0.1-15.3,0-22.9,0
		c-1.4,0-2.3,0.1-2.7,2c-1.4,8.5-0.3,10,8,10C47,39,49,39,51,39z"/>
</g>
</svg>
