<?xml version="1.0" encoding="utf-8"?>
<!-- Generator: Adobe Illustrator 20.1.0, SVG Export Plug-In . SVG Version: 6.00 Build 0)  -->
<svg version="1.1" baseProfile="tiny" id="Слой_1"
	 xmlns="http://www.w3.org/2000/svg" xmlns:xlink="http://www.w3.org/1999/xlink" x="0px" y="0px" viewBox="0 0 100 100"
	 xml:space="preserve">
<g>
	<path fill="#3E5476" d="M37,1c5.4,2.8,10.8,5.6,16.2,8.3c2.8,1.4,4.8,3.3,6.4,6c3.9,6.7,8.4,13,10.9,20.4c1,2.9,0.1,5.9,0.5,8.9
		c0.6,3.8-2.1,4.8-4.7,6C64.7,51.3,65,52.7,65,54c0,3.3,0.2,6.7-0.1,10c-0.2,3.6-2.5,5.1-6,5.1c-3.6,0-5.7-1.6-5.9-5.2
		c-0.2-2.3-0.1-4.7,0-7c0.2-3.4,0.2-6.6-4.1-7.7c-1.4-0.4-2.2-1.6-1.9-3.1c0.8-4.9-2.6-5.1-5.8-4.9c-3.8,0.2-7.6,0.9-11.3,1.5
		c-6.4,1-12.2,0.2-17.4-3.9C9.1,36,5.3,34.6,1,35c0-1,0-2,0-3c5.2-2.4,9.3,0.5,13.3,3.1c3.3,2.1,6.4,4.3,10.5,3.8
		c9.7-1.2,19.4-2.9,29.2-0.1c1.5,0.4,3.1-0.1,3.7-1.7c0.6-1.7-0.6-2.9-1.9-3.7c-3.6-2.4-7.3-4.6-11.9-4.5c-2.8,0-5.7,0.3-8.5-0.2
		c-3.6-0.7-6.6-2.8-6.4-7.1c0.2-4.1,3-6.7,6.9-6.4c6.1,0.4,12.2,1.6,16.5,6.8c2.9,3.6,5.9,7.2,8.8,10.8c0.8,1,1.9,1.7,3,0.9
		c1.3-0.9,0.5-2.1-0.1-3.1c-1.4-2.4-2.8-4.9-4.4-7.2c-2.4-3.5-3.6-8-7.8-10.1c-4.8-2.4-9.6-4.6-14.3-7.1C35.4,5,33.3,5.3,31,6.3
		c-6.7,3-13.3,6.1-20.4,8C7.4,15.2,4.2,15.8,1,14c0-0.7,0-1.3,0-2c1-0.6,2-1,3.2-1c10.2-0.7,19-5.3,27.8-10C33.7,1,35.3,1,37,1z
		 M67,41.8c-0.7-1,1.5-3.6-1.8-3.8c-2.1-0.1-3.8-0.1-3.4,3.1c0.2,2.1-1.7,3.3-3.8,2.5c-1.5-0.5-2.9-0.8-4.3-0.7
		c-1.1,0-2.4-0.6-2.6,1.3c-0.1,1.2,0.6,2.1,1.6,2.2C58,46.8,57,50.7,57,54c0,2.5,0,5,0,7.5c0,1.4-0.4,3.3,1.8,3.4
		c2.7,0.1,2.1-2.1,2.1-3.6c0.1-3.2,0.1-6.3,0-9.5c-0.1-2.7,0.1-4.9,3.7-5.1C67.4,46.5,67,44.1,67,41.8z M49.7,25.7
		c-2.6-5-7.1-4.6-10.5-6.2c-1.9-0.9-3.9-0.9-5.6,0.7c-0.8,0.7-0.9,1.9-0.3,2.7c1.1,1.6,2.9,2,4.8,2C41.8,24.9,45.3,24.6,49.7,25.7z"
		/>
	<path fill="#3E5476" d="M101,77c-1.4,1.2-2.7,0.7-4.2,0.1c-2.4-1.1-5-1.8-7.4-3c-6.8-3.4-13.5-3.8-20.5-0.3
		c-5.1,2.5-10.8,3.4-16.5,3.3c-1.2,0-2.4,0-3.5,0.2c-1.8,0.4-4,0.7-3.7,3.2c0.2,2.1,2.3,2.3,3.9,2.4c7.6,0.2,15.3,0.8,22.9-1.2
		c1.7-0.5,4-1.7,4.7,0.7c0.8,2.7-1.9,2.6-3.5,3c-8.3,2.5-17,2.6-25.2,1.1c-5.9-1-11.2-5.5-17.3-7.1c-2.4-0.6-4.7-1.6-7.1-2.3
		c-1.6-0.4-3.5-0.9-4.3,1.2c-0.7,2.1,0.9,3,2.5,3.6c8,3.3,16.2,6.1,23.9,10.1c9.8,5,19.1,5.2,28.9,0.2c5.3-2.7,11.1-3.7,16.9-1
		c1.5,0.7,4,1.4,2.7,3.8c-1.1,2.2-2.9,0.5-4.3-0.1c-2.7-1.3-5.6-1.7-8.3-0.8C75.3,96.3,68.9,98,63,101c-2,0-4,0-6,0
		c-11.1-4.6-22.3-9.2-33.4-13.9c-1.5-0.6-3.1-1.3-4.6-2c-2.9-1.3-4.3-3.6-4-6.8c0.4-3.2,2.3-5.1,5.5-5.6c1.1-0.2,2.3,0,3.1-1.2
		c3.1-4.8,7.6-4.6,11.9-2.5c12.2,5.8,24.1,5,36.1-0.4c5.2-2.3,10.4-1.8,15.5,0.2c4.6,1.8,9.3,3.5,13.9,5.2C101,75,101,76,101,77z
		 M27.2,73.5c4,2.3,8.3,3.3,12.5,4.7c0.9,0.3,1.6,0,2.1-0.8c0.3-0.6,0.4-1.2-0.1-1.8C39.9,73.3,30.2,71.8,27.2,73.5z"/>
</g>
</svg>
