<?xml version="1.0" encoding="utf-8"?>
<!-- Generator: Adobe Illustrator 20.1.0, SVG Export Plug-In . SVG Version: 6.00 Build 0)  -->
<svg version="1.1" baseProfile="tiny" id="Слой_1"
	 xmlns="http://www.w3.org/2000/svg" xmlns:xlink="http://www.w3.org/1999/xlink" x="0px" y="0px" viewBox="0 0 1280 1024"
	 xml:space="preserve">
<g>
	<path fill="#364E70" d="M638.2,1016.7c-147.3,0-294.7-1.2-443.1,1.2c-46,1.2-65.6-9.2-63.3-59.9c3.5-101.3,1.2-202.6,1.2-305
		c0-31.1,3.5-54.1,42.6-50.6c31.1,3.5,26.5-18.4,26.5-36.8c0-92.1,0-184.2,0-276.2c0-24.2-6.9-50.6,31.1-56.4
		c25.3-3.5,11.5-27.6,13.8-42.6c5.8-28.8-15-66.8,38-74.8c17.3-2.3,9.2-34.5,8.1-51.8c-3.5-43.7,9.2-61,56.4-61
		c193.4,2.3,386.7,2.3,580.1,0c44.9,0,57.5,16.1,54.1,57.5c-1.2,25.3-13.8,59.9,32.2,63.3c3.5,0,8.1,5.8,8.1,6.9
		c-21.9,70.2,56.4,111.6,52.9,178.4c-4.6,84,0,168-1.2,253.2c0,25.3,1.2,44.9,35.7,41.4c28.8-3.5,34.5,17.3,34.5,41.4
		c0,109.3-1.2,218.7,0,328c1.2,42.6-21.9,46-54.1,46C940.9,1016.7,789,1016.7,638.2,1016.7z M1030.7,444.6c0-43.7-1.2-88.6,0-132.4
		c1.2-24.2-6.9-33.4-32.2-33.4c-239.4,1.2-478.8,1.2-718.2,0c-25.3,0-33.4,8.1-32.2,33.4c1.2,84,2.3,169.2,0,253.2
		c-1.2,32.2,11.5,38,40.3,38c63.3-2.3,126.6,0,189.9-1.2c28.8,0,43.7,6.9,49.5,39.1c12.7,64.5,58.7,100.1,115.1,99
		c55.2-1.2,97.8-35.7,109.3-99c5.8-33.4,20.7-40.3,49.5-39.1c59.9,1.2,118.6-2.3,178.4,1.2c39.1,2.3,56.4-6.9,51.8-49.5
		C1027.2,518.3,1030.7,481.5,1030.7,444.6z M633.6,970.6c140.4,0,279.7-1.2,420.1,1.2c39.1,1.2,48.3-11.5,47.2-48.3
		c-2.3-74.8-3.5-149.6,0-224.4c1.2-39.1-6.9-54.1-49.5-51.8c-69.1,3.5-138.1,2.3-207.2,0c-32.2-1.2-49.5,5.8-62.2,41.4
		c-20.7,58.7-67.9,92.1-131.2,96.7c-57.5,4.6-118.6-15-135.8-66.8c-27.6-81.7-84-71.4-143.9-70.2c-49.5,1.2-100.1,2.3-149.6-1.2
		c-38-2.3-44.9,11.5-43.7,46c2.3,77.1,2.3,153.1,0,230.2c-1.2,36.8,8.1,49.5,47.2,48.3C360.8,969.5,497.8,970.6,633.6,970.6z
		 M642.8,164.9c-103.6,0-206,1.2-309.6,0c-27.6,0-40.3,4.6-40.3,36.8c0,31.1,15,33.4,39.1,32.2c204.9-1.2,409.8-1.2,613.5,0
		c27.6,0,40.3-4.6,40.3-36.8c0-31.1-15-33.4-39.1-32.2C845.4,164.9,744.1,164.9,642.8,164.9z M645.1,49.8c-87.5,0-176.1,0-263.6,0
		c-25.3,0-42.6-1.2-42.6,34.5c0,34.5,16.1,35.7,42.6,35.7c171.5-1.2,344.1-1.2,516.8,0c25.3,0,42.6,1.2,42.6-34.5
		c0-34.5-16.1-35.7-42.6-35.7C813.1,51,729.1,49.8,645.1,49.8z"/>
</g>
</svg>
