<?xml version="1.0" encoding="utf-8"?>
<!-- Generator: Adobe Illustrator 20.1.0, SVG Export Plug-In . SVG Version: 6.00 Build 0)  -->
<svg version="1.1" baseProfile="tiny" id="Слой_1"
	 xmlns="http://www.w3.org/2000/svg" xmlns:xlink="http://www.w3.org/1999/xlink" x="0px" y="0px" viewBox="0 0 250 290"
	 xml:space="preserve">
<g>
	<path fill="#466182" d="M110,291c-2.8-2.1-5.8-2.5-9.1-1.5c-1.5,0.5-3.3,0.5-4.9,0.5c-5.3,0-5.7-0.7-4.1-5.8
		c0.3-0.8,1.4-1.7,0.1-2.6c-1.2-0.8-1.6,0.6-2.2,1.2c-4.3,4.1-9.8,5.2-15.1,3.8c-4-1-7.1-0.9-10.5,1.3c-2.2,1.4-4.9,1.9-7,0.6
		c-2.2-1.4-0.5-4.3-1-6.3c-1.6-6.9,3.7-11.7,4.9-17.7c1.3-6.3,3.5-12.5,5.5-18.6c2.9-8.6,3.3-17.6,4.1-26.5
		c0.3-3.8,1.3-7.4,1.2-11.3c-0.4-13.1-3.4-26.1-3.8-39.1c-0.3-9.4-0.9-18.9-1.4-28.3c-0.6-11.1,1.6-21.5,5.3-31.8
		c1-2.7,2.2-5.8,4.4-7.4c6.6-4.9,4.9-11.6,4.1-17.7c-0.7-5.4-3.2-10.5-6.7-14.9c-1.5-2-2.9-4.6-6.3-2.8c-0.9,0.5-2.2,0.1-3.1-0.9
		C57.1,57.7,50,50.1,46.7,40.1c-4-11.8,5.8-27.6,17.7-30.2c5.2-1.1,9.6-4.7,14.9-5.9c11.5-2.6,22.4,0.1,33.3,3.3
		c4.3,1.3,8.3,3.5,12.9,5.5c-2.3,2.1-4.8,0.5-7,1.6c2.3,1,4.5,2.1,6.8,4.4c-3.4,0-6,0-8.9,0c1,1.7,3.6,1,3.4,3.7
		c-3.6,1.5-7.1-1.6-10.7-0.7c-0.4-0.8-0.9-1.1-1.7-0.6c0.3,0.4,0.6,0.9,1,1.3c0.6,1.5,2.8,1.1,3.3,3.1c-1.2,0.2-2.3,0.4-4,0.7
		c4.4,6.7,8.8,12.9,12.7,19.5c3.8,6.4,3.6,6.5-2.1,10.5c7.8,6.9,4.5,15.7,4,23.9c-0.1,2-1.3,2.3-3.1,2.8c-5.9,1.8-11.9,1.8-18.4,1.9
		c1.1,2.3,1.6,4.2,1.2,6.2c-1.3,6.8,1.8,11.3,6.5,16.1c4.9,5.1,10.8,2.8,16,4.6c2,0.6,4.1,0,6.3,0.8c2,0.7,4.2,0.3,6.5-1.2
		c13.6-8.9,26.8-18.4,41.1-26.3c3.3-1.8,3.5-4.9,1.7-7.9c-2.3-4-2.4-7.5,1-11c2-2,0.4-4.7,1.3-7c0.4-1-2.6-1.8-0.6-3.2
		c1.5-1,2.5,1.3,4.2,1.3c0-18.8,0-37.6,0-56.4c4.7,0,9.3,0,14,0c0,96.7,0,193.3,0,290c-4.7,0-9.3,0-14,0c0-37.8,0-75.6,0-113.4
		c0-11.6,0-11.8-11.5-11.6c-5,0.1-9-1.6-12.2-5.3c-2.9-3.4-4.6-8.4-10.7-7.6c-1.1,0.2-2.1-0.8-2.7-2c-0.7-1.5-2.2-1.8-3.5-2.2
		c-9.9-2.4-20-4.5-29.8-7.3c-3.1-0.9-3.5-0.7-3.8,2.4c-0.6,6-1.4,12-2.1,18c-1.6,14.8-6.8,29.1-5,44.5c1.1,9.1,0.6,18.6,1.5,27.7
		c1.5,14.9,3,29.7,0.3,44.6c-0.1,0.6,0.1,0.7,0.5,1c3.2,2.4,5.6,6.7,10.8,3.7c2.6-1.5,5.8-0.2,8.6-1.5c0.7-0.3,2.7,0.7,3.3,1.6
		c0.9,1.3-0.3,2.5-1.4,3.3c-1.8,1.4-3.6,2.6-5.4,3.9C118.7,291,114.3,291,110,291z M99.1,235.3c0.3-6.6-1.4-13.1-1.2-19.8
		c0.2-6.9-1.5-13.6-2.8-20.3c-0.3-1.3-0.4-2.2-2-2.2c-3.3,0.1-6.7-0.2-10,0.2c-1.4,0.1-3.2,0.7-3.1,3c0.2,11.5-2.4,22.9-2.8,34.3
		c-0.5,14.6-2.3,29-5.1,43.4c-0.3,1.5-0.8,3.5,1,4.6c1.8,1.1,3.6,2.1,6,1c2.9-1.4,6-2.9,9.1-3.3c3.8-0.6,5.7-1.3,6.4-5.9
		C96.3,258.6,98.3,247,99.1,235.3z M182,94c-13.7,9.4-26.8,18.2-39.7,27.3c-4.9,3.4-10.4,4.5-15.8,3.5c-4.7-0.9-9.2-0.4-14.8-0.9
		c2.9,1.8-1.3,5.5,2.3,5.8c3,0.2,5.2,1.8,7.8,2.5c8.6,2.2,17.1,5,25.6,7.6c2.3,0.7,3.8,1.1,6-1.3c2.6-2.8,5.8-5.3,8.7-8.1
		c0.7-0.7,1.1-1.3,2.5-0.7c4.5,2.4,9.4,0.7,14.2,1.2c2.6,0.3,3.4-0.7,3.4-3.3C181.9,116.7,182,105.7,182,94z"/>
	<path fill="#FEFEFE" d="M108.3,22.6c-0.3-0.4-0.6-0.9-1-1.3c0.8-0.5,1.4-0.2,1.7,0.6C108.8,22.2,108.5,22.4,108.3,22.6z"/>
</g>
</svg>
