<?xml version="1.0" encoding="utf-8"?>
<!-- Generator: Adobe Illustrator 20.1.0, SVG Export Plug-In . SVG Version: 6.00 Build 0)  -->
<svg version="1.1" baseProfile="tiny" id="Слой_1"
	 xmlns="http://www.w3.org/2000/svg" xmlns:xlink="http://www.w3.org/1999/xlink" x="0px" y="0px" viewBox="0 0 250 290"
	 xml:space="preserve">
<g>
	<path fill="#466182" d="M168.9,66.9c3.4-3.9,3.6-3.9,6.2,1.1c1.2,2.3,2,2.6,3.5,0c1.7-3,2.2-2.8,4,0.5c0.5,0,0.9,0,1.4,0
		c0-22.5,0-45.1,0-67.6c4.7,0,9.3,0,14,0c0,92.1,0,184.3,0.1,276.4c0,4.6-1.1,5.9-5.7,5.7c-8.4-0.4-8.4-0.1-8.4-8.3
		c0-60.7,0-121.3,0-182.4c-5.2,1.7-9,5.4-13.1,8.3c-6.4,4.5-12.5,9.6-18.9,14.3c-1.1,0.8-1,1.6-1,2.5c0.1,4.8-1.7,9.5-1,14.3
		c0.4,2.8-0.9,3.3-3.4,3.3c-2.2-0.1-3.9-0.1-3.6-3.1c0.2-3.4,0.1-6.9,0.1-10.8c-4.1,3-8.5,3.3-12.9,3.8c-5.6,0.7-10.5,3.7-15.2,6.4
		c-1.8,1-1.9,5.2-1.9,8.1c-0.4,17.8-3.6,35.2-7.2,52.4c-1,4.6,0.2,8.8,0.6,13.1c0.5,5.3,0.4,10.6,0.7,15.8c1,17.3,2.9,34.7,2,52.1
		c-0.1,1.9,0.5,3.9-0.9,5.7c-0.9,1.2,5,6.2,6.9,5.9c3.8-0.7,7.6-1.5,11.4-2.3c1.9-0.4,3.6,0.3,4.3,1.6c0.9,1.4-0.3,2.5-1.9,3.4
		c-1.8,1-3.3,2.6-4.9,3.9c-4.3,0-8.7,0-13,0c-2.8-1.9-5.6-3.3-9.1-1.2c-1.2,0.7-3.3,0.1-4.9,0.2c-3.8,0.1-4.7-1.7-3.5-5
		c0.4-1.1,2.2-2.3,0.5-3.3c-1.4-0.8-2,1.1-2.9,1.9c-4.1,3.3-8.8,4.3-13.9,3.1c-3.2-0.8-6.1-1.3-9,0.8c-2.4,1.7-5.4,2.7-7.9,1.1
		c-2.3-1.5-0.7-4.4-0.7-6.8c0.4-10.9,5.9-20.3,8.4-30.5c2.4-9.6,4.3-19.2,5.1-29.1c0.5-5.6,1.2-11.2,0.8-16.8
		c-1.1-15.6-2.7-31.1-3.8-46.7c-0.4-5.3,0.7-10.8-0.3-16c-2-10.3,1.4-19.7,3.1-29.4c0.9-5,3.7-8.9,6.4-13c1.2-1.8,4.2-2,3.7-5.2
		C82.3,89.7,84.3,84,81,79c-1.9-2.9-3.5-5.8-5.4-8.7c-1.4-2.3-2.8-4.4-6.3-3.4c-3.3,1-3.9-2.7-5.2-4.4c-5.8-7.8-11.6-15.7-12.3-26.1
		c-0.7-10.8,6-15.2,13.6-17.1c6-1.5,11-3.5,15.2-8.3c4-4.5,10.1-5.9,15.9-6.8c4.3-0.7,8.7-2.3,13.5-0.6c-2.4,3.6-1.7,5.2,2.9,6.1
		c5.6,1,5.5,1.6,1.7,6.2c7.7-3,12.9-0.2,17.3,6.2c-5.4-0.9-8.7,1.8-11.7,5.3c-0.7,0.9-1.7,1.4-2.8,1.9c-5.6,2.6-5.6,2.7-2.4,8.7
		c2.5,4.7,5.1,9.5,7.6,14.2c0.5,1,1.1,2,1.3,3.1c0.9,3.7,4.8,8.8-4.4,8.5c6.1,5.7,3.2,11.7,2.2,17.2c-1.7,9.6-0.5,8.9-11.4,9
		c-2.3,0-4.6,0-6.8,0c0.1,1.9,0.6,3.6,0.3,5.1c-1.1,4.8,1,7.8,4.4,10.9c3.3,3,6,6.1,11.1,5.1c1.3-0.3,2.8,0.7,4.3,0.9
		c7.4,1.1,11.5-3.2,16.8-8.5c5.1-5,2.5-9.7,3.6-14.5c1.1-5.2,1.1-10.5,0.9-15.8c-0.1-2-0.3-2-5.3-2.4c0.9-5.6,0.6-5.9-4.7-5.8
		c-3.5,0.1-6.3,2.1-9.8,2.6c3.5-4.9,7.1-9.6,14-9.5c4.5,0,9-0.1,13.5,0c4.7,0.1,9.2,3.3,14.2,1c1.2-0.6,2.1,0.4,2.1,1.9
		C168.9,63,169,65,168.9,66.9c-0.8,4.8-3.1,6.3-7.7,4.2c-2.2-1-4.4,1.1-6.7,0.9c-2.1-0.2-2.4,0.9-2.5,2.7
		c-0.2,6.4,0.7,12.9-0.5,19.3c-0.2,1,0.4,1.6,1.2,1.9c2.7,1,5.1,2.2,8.1-0.1c5-3.8,10.7-6.8,16-10.2c0.9-0.5,2-0.6,2.2-2.3
		c0.5-3.9-0.6-7.4-2.4-10.7c-0.3-0.5-1.6-2.5-2.8-0.2c-0.6,1.2-1.6,3-3.4,2.3c-1.9-0.7-1.4-2.7-1.5-4.4
		C169,69.2,168.9,68,168.9,66.9z M99.7,227.4c1.3-7.5-0.7-14.5-0.9-21.6c-0.1-3.7-1.9-7.2-1.9-11c0-0.9-0.2-1.7-1.3-1.7
		c-3.8,0-7.6,0.1-11.4,0.3c-0.3,0-2.3,0.2-1.6,1.6c1.2,2.6-0.6,4.8-0.8,7.2c-0.4,9-1.2,18-1.9,27c-1.3,15.2-2.6,30.3-4.9,45.4
		c-0.7,4.2,2,6,6.1,4.7c4.3-1.3,8.3-3.7,12.9-3.8c1.6,0,1.8-1,1.9-2.2C97.7,257.9,101.7,242.8,99.7,227.4z"/>
</g>
</svg>
