<?xml version="1.0" encoding="utf-8"?>
<!-- Generator: Adobe Illustrator 20.1.0, SVG Export Plug-In . SVG Version: 6.00 Build 0)  -->
<svg version="1.1" baseProfile="tiny" id="Слой_1"
	 xmlns="http://www.w3.org/2000/svg" xmlns:xlink="http://www.w3.org/1999/xlink" x="0px" y="0px" viewBox="0 0 250 290"
	 xml:space="preserve">
<g>
	<path fill="#466182" d="M65,291c-2-1.6-5.9-0.8-6.6-3.3c-1-3.8-4.8-6.3-3.7-11.4c3-13.8,3.4-28,5.5-41.8
		c1.9-12.6-1.2-24.5-2.2-36.7c-0.3-3.6-0.2-7.3-0.1-11c0.1-5.8-1.2-11.4-1.7-17.1c-0.4-4.9,1-10.1,5-13.1c4.9-3.6,5-7.7,3.9-12.9
		c-2.1-9.8-7.4-18-12.5-26.2c-1.4-2.2-1.4-3.5,0.6-5.3c3.2-2.9,6.8-5.2,11-6c2.1-0.4,2.7-1,2.7-3c-0.1-4.3,0.1-8.7-0.1-13
		c-0.1-3.4-0.9-3.3-4.3-2.7c-3.3,0.6-4.2-2.6-5.2-5.2c-3.6,2.6-4.7,7.6-9.2,9.5c0.3-2.2,0.4-4.2,0.9-6.2c1.6-6.7,1.7-6.7-4.5-8.7
		c-1-0.3-1.7-1-1.5-2.6c5.4,0.9,5.4-2.8,4.7-6.3c-0.7-3.3,0.4-7.8-4.4-9.3c-0.6-0.2-0.5-1.1-0.2-1.2c3.7-1.3,1.5-4.3,1.6-6.3
		c0.3-7.7,0.1-15.4,0.1-23c0-3.1,0.2-6.5-4.1-7.3c-0.8-0.1-0.9-0.8-0.8-1.6c0.2-1.5,1.1-0.4,1.8-0.4c14.5,0,29,0.2,43.5,0
		c10.2-0.1,17.1,5.1,22.1,13.1c2.5,4,7.3,5.5,9.4,9.8c0.4,0.8,1.6,1,0.4,2c-4.9,4.2-5.3,9.8-5.2,15.7c0,1.2,0.9,1.7,1.5,2.5
		c0.7,0.9,0.6,1.8,0.1,2.8c-3.3,6.8-2.8,7.7,4.8,7.7c-2.6,2.3-4.7,4.3-8.6,2.7c1.6,3.1,1.2,5.3-1.7,6.8c-2.7,1.5-2,5-3.7,7.1
		c-0.2,0.2-0.3,0.6-0.4,0.9c-6.3,14.5-6.4,11.7-18.3,8.3c-2.1-0.6-4.2-1.5-6.5-2.3c-0.5,4.4-0.6,8.5,0.8,12.4c1.3,3.9,5.6,4.9,8.4,7
		c3.8,2.8,4.1,5.3,2.7,9.2c-1.4,4.1-3.2,8.2-3.1,13.4c7.6-4.4,14.6-9.3,22.2-12.5c8.3-3.5,11.4-11.5,16.9-17.4c1.9-2,1.2-4.6-1-6.5
		c-5.8-4.9-4-9.2-1.5-13.8c2.3-4.1,3.7-8.1,1.8-13.2c-1.9-5,0.5-10.4,1-15.6c1.6-14.8,6.2-29,7.6-43.8C135.8,8.4,141,4.6,147,2.1
		c0.7-0.3,1.7,0,2-1.1c9,0,18,0,27,0c4.7,2.1,10.1,1.9,14.8,1.7c12.1-0.6,18.8,10,19.2,19.8c0.8,18.3-0.6,36.5-4.8,54.4
		c-1.5,6.5-1.9,13.3-2.1,20c-0.5,17.3-2.4,34.5-3.9,51.7c-0.8,9-1.6,18-2.4,27.1c-1.3,14.6-2.4,29.4-5.9,43.7
		c-0.7,2.8-1.8,5.6-4.5,7.4c-5.3-4.3-5.3-10.7-6.3-16.5c-3.8-21.5-3.2-43.2-3.1-64.8c0.1-7.5-1.1-14.7-2.1-22.1
		c-0.6-4.4-2.5-5.1-5.8-2.1c-2.4,2.2-3.5,1.8-4.2-1.3c-2.5-11.6-1-23.1-0.4-34.7c0.5-10.3,3.4-20.6,0.1-31.2
		c-5,3.1-5.6,8.6-7.7,13.3c-1.1,2.5-1.9,5.3-2.2,8c-0.3,3.8-4.2,5.2-4.9,8.6c-1.1,5.1-2.7,10-3.9,15c-0.9,3.7-2.8,5.6-6.7,5.9
		c-3.4,0.3-6.4,0.8-3.9,6c3.5,7.6,2.6,9.7-5.1,13.1c-13.4,5.8-25.1,14.8-38.6,20.2c-5.5,2.2-5.8,5.1-5.8,9.8
		c-0.2,12.6,3.3,24.8,3.2,37.4c0,2.8,1.8,5.2,3.4,7.4c5.2,7.2,5.2,7.1,4,16.1c-6.1-2.7-4.4-9.2-6.8-14.3c-1.2,6.6-4.4,11.7-4,18.2
		c0.4,7.3,2,14.4,2.8,21.6c0.4,4,0.7,8.2,1.2,12.2c0.7,7,2,14.1,1.3,21.3c-0.1,1.1,0.3,2.4-0.8,3.2c-3.5,2.8-1.8,4.3,1.2,6
		c2.5,1.5,4.8,3.4,7.8,3.8c1.3,0.1,2.9-0.2,3.3,1.4c0.3,1.7-2.2,1.2-2.5,2.6c-3.7,0-7.3,0-11,0c-1.9-2.3-5.8,0.5-7.3-2.8
		c-1.8-4.1-4.9-7.6-3.8-12.9c1.2-6,1.3-12.1,1.2-18.3c-0.2-9.3-0.1-18.7,0-28c0-3,0.8-6,0-9c-3-10.5-5.3-21.1-6.2-32.1
		c-0.3-3.1-0.1-6.7-1.6-10.4c-0.6,1-1.1,1.3-1.1,1.7c1.5,17.8-3,35.4-1.3,53.4C70,246.3,69,260.2,69,274c0,0.9,0.5,2.2-0.6,2.7
		c-6.4,3.2-1.5,5.5,0.7,7.8c1.8,1.9,4.3,3.2,6.9,3.4c2.4,0.2,2,1.7,2,3.1C73.7,291,69.3,291,65,291z"/>
</g>
</svg>
