<?xml version="1.0" encoding="utf-8"?>
<!-- Generator: Adobe Illustrator 20.1.0, SVG Export Plug-In . SVG Version: 6.00 Build 0)  -->
<svg version="1.1" baseProfile="tiny" id="Слой_1"
	 xmlns="http://www.w3.org/2000/svg" xmlns:xlink="http://www.w3.org/1999/xlink" x="0px" y="0px" viewBox="0 0 250 290"
	 xml:space="preserve">
<g>
	<path fill="#496385" d="M120,1c17.2,5.4,27.9,17.7,35.6,33.3c0.6,1.2,1,2.4,1.4,3.7c0.1,0.4-0.1,1-0.1,1.6
		c-1.5-0.4-2.5-2.5-4.5-1.2c0.5,1.6,2,3,1.3,5c-1.5,0.2-1.9-1.7-3.5-1.8c-2.2,5.8-5.5,11.2-8.7,16.6c-0.7,1.2-1.9,2.4-0.3,3.9
		c3.1,3,0.8,5.1-1.7,6.1c-4,1.6-6.2,4.8-8.4,8.1c-4.1,6.1-9.1,11.5-14.4,16.6c-1.2,1.1-2.1,2.7-4.2,2.2c-0.8-0.2-1.7-0.3-1.9,0.9
		c-0.2,1,0,2,0.7,2.8c0.3,0.3,1,0.2,1.4,0.4c7.9,4.1,12.9,10.1,15.4,19c3.5,12.8,8.2,25.3,12.5,37.9c3.2,9.3,10,16,16.4,23
		c2.5,2.7,6.5,3,9.8,1.1c4.4-2.6,7.8-1,11.2,1.6c-0.7,2.3-2.9,0.6-3.8,1.9c0.9,2.7,3.3,2.4,5.4,2.4c16.5,0,33,0.1,49.5-0.1
		c3.8-0.1,4.7,1.1,4.7,4.8c0,3.6-1.1,4.6-4.6,4.4c-4-0.3-8,0.1-12-0.1c-3.6-0.2-3.8,1.1-2.6,4.1c7.4,17.5,14.6,35,21.9,52.5
		c4.3,10.4,8.7,20.9,13,31.3c0.2,0.6,0.4,1.3,1.3,1.3c0,1,0,2,0,3c-6.1,2.5-6.1,2.5-8.7-3.7c-7-16.9-14-33.8-21-50.7
		c-3.7-8.9-7.4-17.7-11.5-27.5c-1.2,3-2.1,4.9-2.9,6.8c-10.3,24.7-20.6,49.5-30.9,74.2c-1.5,3.5-4.2,3.8-6.5,0.9
		c-1.6-1.9,0.1-3.5,0.7-5c11.4-27.7,22.9-55.3,34.5-82.9c1.4-3.2,1.1-4.3-2.7-4.2c-13,0.2-26,0-39,0.1c-1.2,0-2.6-0.7-3.7,0.9
		c9,7.1,18.1,14.2,27,21.4c1.2,1,3.8,1.6,1.7,4.1c-2.6,3.1-4.9,6.3-7.5,9.3c-0.8,0.9-1.7,2.4-3.5,1.1c-5.7-3.9-11.5-7.6-17.3-11.3
		c-6.8-4.3-13.4-9.1-20.1-13.6c-5.1-3.4-10.1-6.9-15.3-10.2c-2.9-1.8-5.7-2.1-8.6-1.6c-2.7,0.4-1.5,3.3-2.1,5
		c-0.3,1.1-0.3,2.3-0.2,3.5c1.1,18.9,2.2,37.8,3.2,56.8c0.3,5.5,0.7,11.2-0.6,16.4c-0.9,3.4,0.9,3.9,2.2,5.4
		c1.5,1.7,2.6,3.7,5.7,2.7c3.8-1.2,7.7-2,11.8-1.9c1,0,2.2-0.2,2.4,1.1c0.1,0.7-0.4,1.7-0.9,2.2c-1.9,1.7-4,3.3-6.1,4.9
		c-3.7,0-7.3,0-11,0c-3.5-2.4-6.9-3.5-11.4-1.7c-5.7,2.2-7.8,0-6.5-5.9c0.4-2.1,0.5-4.2,0.9-6.3c4.8-22.2,7-44.6,4.3-67.4
		c-1.8-15.8-2.2-16.3-18.3-14.8c-3.5,0.3-4.7,1.5-5,5.2c-1.4,18.9-3.1,37.8-4.7,56.7c-0.6,7.5-3.3,15,1.4,22.3
		c1.3,2,2.1,2.5,4.2,1.7c2.9-1.2,5.9-2.2,8.9-3.3c1.3-0.4,2.8-0.9,3.8,0.2c1,1.3-0.4,2.4-1.1,3.5c-4.1,6.9-11.9,5.6-18.1,7.9
		c-0.3,0.1-1-0.6-1.4-1.1c-1.7-2.4-3.6-1.8-5.5-0.3c-1.5,1.1-3.3,1.6-5.1,1.9c-3.4,0.5-4.9-0.5-4.5-4.3c0.5-4.5,0.2-9.1,2.5-13.3
		c2.9-5.3,2.3-10.3-0.4-15.5c-2.6-5.2-4.6-10.7-6.8-16.1c-4.8-11.4-9.5-22.8-14.6-34.9c-1,2.2-1.7,3.5-2.3,4.8
		C30.1,234.4,20,258.7,9.9,282.9c-2.7,6.5-2.7,6.5-8.9,4.1c0-0.7,0-1.3,0-2c0.1-0.1,0.3-0.2,0.4-0.3c12.1-28.8,24.1-57.7,36.2-86.5
		c1.2-3-0.1-3.4-2.6-3.4c-5.7,0.1-11.3-0.1-17,0.1c-3.2,0.1-3.8-1.1-4-4c-0.3-4.2,1.2-5.3,5.3-5.2c16.8,0.2,33.6,0.1,50.5,0
		c1.3,0,4.5,1,3.7-1.5c-2-6.5,0.9-14.2-5.2-19.6c-1.6-1.4-1.8-3.6-1.5-5.6c0.3-2-0.6-3.4-1.6-5c-2.7-4.7-7.9-5.9-12-8.6
		c-7.6-5.1-15.5-9.9-20.9-17.6c-3.5-5.1-2.3-8.4,3.3-10.2c0.9-0.3,1.8-0.8,2.7-1.2c15.6-7,31.1-14.1,46.7-21
		c1.9-0.8,2.3-2.2,2.8-3.7c2.1-6.1,0.8-11.5-1.5-17.6c-4.3-11.4-2.1-24.1-5.5-35.8c-0.7-2.3-0.1-4.8,3-5.2c2.6-0.3,2-2.3,2-3.8
		c0.2-4.7,0.7-9.3,2.1-13.8C90.8,6.1,97,1.9,106.9,2.7c1.5,0.1,3.5,0.7,4.1-1.7C114,1,117,1,120,1z M45.7,194.8
		c8.1,19.5,15.9,38.3,23.7,57.1c6.3-17.9,7.6-36,7.5-54.3c0-1.7-0.6-2.9-2.6-2.9C65.2,194.9,55.9,194.8,45.7,194.8z M41.1,124.6
		c8.4,7.6,17.9,12.8,27.2,18.3c1.3,0.8,3.5,1,3.4-1.8c-0.4-9.3-1-18.6-1.4-27.9c-0.1-2.8-1.2-2.4-3.1-1.5
		C58.7,116,50.2,120.1,41.1,124.6z M124.8,139.4c-1.3,8.8-2.3,16.1-3.5,23.5c-0.4,2.2,0.5,3.3,2.1,4.5c7.1,5.5,14.1,11.1,21.1,16.7
		c2.4,1.9,2.4,1.8,6.3,0.9C139.2,171.9,130.4,157.4,124.8,139.4z"/>
</g>
</svg>
