<?xml version="1.0" encoding="utf-8"?>
<!-- Generator: Adobe Illustrator 20.1.0, SVG Export Plug-In . SVG Version: 6.00 Build 0)  -->
<svg version="1.1" baseProfile="tiny" id="Слой_1"
	 xmlns="http://www.w3.org/2000/svg" xmlns:xlink="http://www.w3.org/1999/xlink" x="0px" y="0px" viewBox="0 0 250 290"
	 xml:space="preserve">
<g>
	<path fill="#466182" d="M108,1c4,2.4,8.7,2.8,13.4,4.9c-5.3,3.3-3.2,5.5,0.7,7.7c1.5,0.8,2.6,2.3,4,3.5c-1.3,1.8-4.8-0.2-4.8,3.1
		c8.2,0,13.4,4.6,13.6,12.6c-3.4-2.3-6.5-2.4-10-0.3c-2.9,1.7-6.3,1.8-9.6,1.4c-2.8-0.3-3.3,0.9-3,3.5c1.2,9.5,2.5,19,1.9,28.6
		c-0.2,3.5-1.6,4.7-4.7,3.6c-3.2-1.2-2.7,0.5-1.9,2.2c1.2,2.6,0.3,4.8-0.9,7c-0.8,1.6-1.9,3-2.7,4.6c-6.2,11.2-8.4,11.9-20.4,6.3
		c-1-0.5-2.2-2.1-3.4-0.5c-1.5,2,0,3.1,1.7,3.7c1.5,0.5,2.9,1.7,3.3,2.9c3.1,8.2,10.8,10.1,17.5,13.4c4.7,2.3,9.6,4.2,14.1,6.8
		c6.5,3.7,12.9,3.5,19.8,1.3c7.1-2.3,14-5.1,21.1-7.6c3.7-1.3,4.9-7.7,2.3-11.3c-1.9-2.7-1.4-9.2,1.4-10.8c3.6-2.2,2.3,1.7,3.1,3
		c3.3-1.4,3.8-4,3.8-7.2c-0.2-7.2-0.1-14.3,0-21.5c0-1.5-1.1-4,2.2-3.8c2.9,0.2,2,2.6,1.6,3.7c-1,2.7,0.8,3.9,2.3,4.7
		c8.3,4.7,10.6,11.7,7.8,20.4c-3,9.5,0.7,16.8,7,23.5c5,5.3,10.6,10,15.2,15.8c7.2,9.2,9,20.4,11.8,31.2c3,11.4,3.6,23.1,3,34.8
		c-0.3,5.8-5.1,7.6-9.3,9.4c-8.8,3.7-17.8,7.1-26.8,10.3c-3.1,1.1-5.8,2.9-8.6,4.5c-3.5,2.1-1.6,5.7-2.3,8.6
		c-0.5,2.3,2.2,6.7-2.1,6.7c-3.9,0-1.7-4.3-1.7-6.5c-0.2-17.8-0.1-35.7-0.1-53.5c0-2,0.9-4.7-2.1-5.2c-2.2-0.4-4.4,0-5.8,2.3
		c-2.1,3.4-4.2,3.3-6.2-0.2c-0.4-0.8-1.1-2.2-1.6-2.1c-9.6,0.2-19.2,0.3-28.8,1c-2.1,0.1-4.2,0.4-6.4,0.5c-1.5,0.1-2.9-0.1-3.5,1.8
		c-0.3,0.8-1.8,2-2,1.8c-6.5-3.8-8.7,4.6-14,4.9c-1.8,0.1-3.4,1.1-4.9-0.4c-2.5-2.6-5.5-4.8-7.8-8c0.1,9.9-5.8,18.9-3.1,29.2
		c1.3,5.2,0.9,10.9,1,16.2c0.3,20.2,3.6,40.3,2.2,60.6c-0.2,3.4-0.9,5.9,2.7,8.9c2.6,2.2,4.3,0.9,5.9,0.7c3.7-0.6,7.3-1.8,11.1-1.7
		c1.2,0,2.4,0.2,3,1.3c0.8,1.4-0.7,2-1.3,2.9c-1.3,2.2-4.3,2.5-5.4,4.9c-4.7,0-9.3,0-14,0c-3.1-1.9-5.9-2.8-10-1.3
		c-7.2,2.6-9.5,0.1-8-7.5c0.1-0.5-0.1-1.1-0.1-1.4c-5.1,3.7-9.9,6.9-16.8,5.3c-3.6-0.8-7.6-2.3-11,1.1c-1,1-3,1.4-4.5,1.6
		c-2,0.2-4.5-0.1-4.4-2.6c0.2-3.9-0.6-8,0.9-11.8c2.5-6.2,4-12.7,6.2-19c6.3-17.5,7.4-35.8,8.6-54c0.8-11.9-2.6-23.5-2.9-35.4
		c-0.1-3.5,0.9-7.3-3.5-9.3c-1.7-0.8-1.3-2.8-1.5-4.4c-0.9-5.8,2.5-10.9,2.8-16.2c0.5-8.7,0.4-17.4,2.3-26
		c1.8-8.2,3.9-16.2,10.4-22.2c6.3-5.7,8.4-13.1,7.3-21.2c-0.5-3.5-1.6-6.9-1.9-10.6c-0.1-1.7,0-3.8-3.1-3.6
		c-0.8,0.1-3.2,0.1-3.8-2.2c-2.7-10.4-5.2-20.8-3.8-31.6c0.6-4.9,2.8-9.4,7.6-12.5C63.2,2.9,69.3,3,74.4,4.4C81.1,6.1,85.8,3.5,91,1
		C96.7,1,102.3,1,108,1z M168,114.6c-2.1,2.3-2.9,4.3-5.1,5.1c-7.4,2.5-14.5,5.9-22,7.8c-9.9,2.5-19.9,3.7-29.6-2.2
		c-6.7-4.1-14-7.1-21-10.5c-0.9,14-1.6,27.8-3.8,41.4c-0.3,2,0,2.7,1.6,2.3c4.9-1.1,9,1.1,12.9,3.3c2.6,1.4,5,1.8,7.1-0.3
		c2.3-2.2,4.5-1.4,5.1,0.8c0.6,2.4,2,2.2,3.3,1.9c7.1-1.7,14.4-0.7,21.6-1.6c4.2-0.6,8.1-3.2,12.4-2.2c1.9,0.4,2.4-0.2,3.3-1.5
		c2.3-3.7,4.1-3.7,6.5,0.2c1.7,2.7,4,0.8,5.9,1c2.5,0.3,1.7-1.9,1.7-3.2C168,143,168,129.4,168,114.6z M76.1,232.1
		c0.2-7.6-1.4-15.1-1.2-22.8c0.1-5.7-1.1-11.4-1.9-17c-0.4-2.2-1.5-4.8-4-5.2c-3.6-0.6-7.4-0.6-10.6,1.3c-2.6,1.6-0.9,4.6-1.3,6.9
		c-0.1,0.5,0,1-0.1,1.5c-1.5,13.2-3.7,26.3-3.9,39.6c-0.2,10.9-2.5,21.4-3.7,32.1c-0.3,3-3.5,6.7,1.3,9.9c4,2.7,5.5-1.3,8.2-1.5
		c9.1-0.7,13.3-4.9,13.7-14.8C73,252.3,75.7,242.3,76.1,232.1z"/>
</g>
</svg>
