<?xml version="1.0" encoding="utf-8"?>
<!-- Generator: Adobe Illustrator 20.1.0, SVG Export Plug-In . SVG Version: 6.00 Build 0)  -->
<svg version="1.1" baseProfile="tiny" id="Слой_1"
	 xmlns="http://www.w3.org/2000/svg" xmlns:xlink="http://www.w3.org/1999/xlink" x="0px" y="0px" viewBox="0 0 250 250"
	 xml:space="preserve">
<g>
	<path fill="#466182" d="M210,1.7c4.4,15.7,5.9,31.9,9.3,47.9c-0.8,0.1-1.6,0.4-2.4,0.4c-14.6,0.3-14.8,0.3-15.1-14.2
		c-0.1-4-0.7-6.1-5.4-5.9c-8,0.4-16.1,0.3-24.2,0c-4.4-0.2-6.1,1.3-5.6,5.6c0.2,1.6-0.2,3.4,0.1,5c1.1,7.2-1.1,11-9.1,9.5
		c-4.8-0.9-6.1,1.3-6,6c0.3,11.9-0.2,23.9,0.2,35.8c0.2,6.3-1.1,8.6-8,8.4c-17.5-0.5-35,0-52.5-0.3c-5.3-0.1-6.5,1.6-6.4,6.6
		c0.3,15.3,0.1,30.6,0.2,45.8c0,3.7,0,6.2-5.1,6.2c-24.6-0.2-49.3-0.1-74.7-0.1c9.3-20.3,21-38.2,34.2-55.2
		c8.8-11.3,18-22.2,28.5-32c35.9-33.4,77.2-57.1,125.4-68"/>
	<path fill="#466182" d="M221.4,198.3c-14.9,10.5-28.7,18-40,29.3c-6,6.1-10.8,13.1-15.8,19.9c-3.3,4.5-5.7,5.1-10,2.6
		c-12.5-7.1-25.2-13.9-37.4-21.4c-4.2-2.6-8.2-3.8-13-3.8c-14.7,0.1-29.4-0.1-44.1,0.1c-4.5,0.1-6.2-1-6.2-5.9c0-4.8,1.6-6,6.2-5.9
		c28.3,0.2,56.6,0.1,84.9,0.1c1.9,0,3.9,0,5.8,0c1.8,0,3.3-0.4,3.1-2.8c-0.1-1.9-1.4-2.1-2.8-2.2c-1.9-0.1-3.9,0-5.8,0
		c-43,0-86,0-129.1,0c-3.2,0-7.3,1.7-7.4-4.7c-0.1-5.7,2.9-5.4,6.7-5.3c24.4,0.1,48.9-0.2,73.3,0.2c6.9,0.1,9.6-1.5,8.6-8.6
		c-0.5-3.8,0.4-7.8-0.2-11.6c-1.1-7.3,2-9.1,8.7-8.4c3.5,0.4,4.9,1.1,4.8,4.8c-0.2,5.8-0.2,11.7,0,17.5c0.1,2.3-1.7,6,3.1,6.2
		c4.8,0.2,3.4-3.4,3.5-5.8c0.2-4.7,0.5-9.5-0.1-14.1c-0.9-7.1,1.8-9.1,8.6-8.6c4.3,0.4,5,2,4.9,5.6c-0.2,5.5,0.3,11.1-0.2,16.6
		c-0.5,5.3,1.6,6.4,6.5,6.4C165,198.2,191.9,198.3,221.4,198.3z"/>
	<path fill="#466182" d="M223.6,69c2.1,8.7,4.2,17.4,6.3,26.2c6.7,28.7,13.3,57.4,19.9,86.1c2,8.7,0.5,10.3-8.8,10.3
		c-19.4,0-19.4,0-19.4-19.1c0-34.4,0-68.7,0-103.1C222.3,69.3,223,69.2,223.6,69z"/>
	<path fill="#466182" d="M203.2,143.1c0.6,4.4,0.2,7.1-5.6,7.1c-5.5,0-6.2-2.2-6.1-6.8c0.1-4.2-0.1-7.1,5.8-7
		C202.8,136.5,204.1,138.5,203.2,143.1z"/>
	<path fill="#466182" d="M179.8,142.4c0.5,4.8,0.5,7.8-5.4,7.8c-5.4,0-6.4-1.9-6.2-6.7c0.2-4-0.4-7.4,5.7-7.1
		C178.9,136.7,181.3,137.8,179.8,142.4z"/>
	<path fill="#466182" d="M158.3,144.1c1.1,4.8-1.2,5.9-6.1,6.1c-6.4,0.3-5.1-3.5-5.5-7.3c-0.5-5,1.2-6.4,6.3-6.5
		C159.2,136.3,158.5,139.8,158.3,144.1z"/>
	<path fill="#466182" d="M134.8,143.3c1.2,5.3-0.7,6.8-5.9,6.9c-6.2,0.2-5.4-3.2-5.7-7.2c-0.4-4.8,0.9-6.6,6.2-6.6
		C135.3,136.5,135.7,139.2,134.8,143.3z"/>
	<path fill="#466182" d="M113.2,144c1.1,4.8-1,6-6.1,6.2c-6.3,0.2-5.2-3.4-5.6-7.2c-0.5-5,1.1-6.4,6.3-6.5
		C114,136.3,113.6,139.7,113.2,144z"/>
	<path fill="#466182" d="M203.2,121.5c0.6,4.4,0.2,7.1-5.6,7.1c-5.5,0-6.2-2.2-6.1-6.8c0.1-4.2-0.1-7.1,5.8-7
		C202.8,114.9,204.1,116.9,203.2,121.5z"/>
	<path fill="#466182" d="M168.4,122c-0.6-4.4-0.3-7.2,5.6-7.2c5.5,0,6.3,2.1,6.1,6.7c-0.2,4.1,0.2,7.2-5.8,7
		C169,128.4,167.5,126.6,168.4,122z"/>
	<path fill="#466182" d="M146.8,121.2c-1-4.7,0.7-6.3,6-6.5c6.1-0.2,5.5,3.1,5.7,7.1c0.3,4.8-0.8,6.6-6.2,6.7
		C146.3,128.6,146.3,125.6,146.8,121.2z"/>
	<path fill="#466182" d="M123.4,120.8c-1.2-4.9,1.3-5.8,6.2-6c6.4-0.3,5.1,3.6,5.5,7.3c0.6,5.1-1.4,6.3-6.3,6.4
		C122.4,128.7,123.2,125.1,123.4,120.8z"/>
	<path fill="#466182" d="M113.2,121c0.3,4.3,0.7,7.6-5.4,7.5c-5.2-0.1-6.7-1.6-6.3-6.6c0.3-3.8-0.7-7.4,5.6-7.2
		C112.2,115,114.3,116.3,113.2,121z"/>
	<path fill="#466182" d="M203.1,97.7c0.7,4.9,0.2,7.6-5.5,7.6c-5.5,0-6.2-2.2-6.1-6.8c0.1-4.2-0.1-7.2,5.8-7
		C202.5,91.7,204.5,93.1,203.1,97.7z"/>
	<path fill="#466182" d="M179.9,98.3c0.8,4.5-0.1,6.8-5.7,6.9c-5.7,0.1-5.9-2.5-5.9-6.9c0-4.4,0.2-6.9,5.9-6.9
		C179.8,91.5,180.6,93.8,179.9,98.3z"/>
	<path fill="#466182" d="M203.1,75.2c1.1,5.2-0.7,6.7-5.5,6.6c-4.5,0-6.2-1-6.1-5.9c0.1-4.5,1-6.4,5.9-6.1
		C201.4,70.2,205,70,203.1,75.2z"/>
	<path fill="#466182" d="M174.3,70.1c5-1.1,5.7,1.5,5.9,5.8c0.1,4.8-1.7,5.8-6.1,5.9c-4.8,0.1-5.8-1.6-5.9-6.1
		C168.1,71,169.6,69.1,174.3,70.1z"/>
	<path fill="#466182" d="M32.4,173.4c4.7-1,6.2,0.9,6.1,5.6c0,4.5-1,6.2-5.9,6.1c-4.5-0.1-6.3-1-6.1-5.9
		C26.7,174.9,27.3,172.3,32.4,173.4z"/>
	<path fill="#466182" d="M54.4,184.9c-4.5,0.9-6.4-0.5-6.2-5.5c0.1-4.3,0.8-6.4,5.7-6.2c4.3,0.1,6.4,0.8,6.2,5.8
		C59.9,183.1,59.6,186.1,54.4,184.9z"/>
	<path fill="#466182" d="M81.4,179c1.3,5.7-1.7,6-5.9,6.2c-5,0.2-5.6-1.9-5.8-6.2c-0.2-5,1.9-5.7,6.2-5.7
		C80.8,173.2,82.9,174.6,81.4,179z"/>
	<path fill="#466182" d="M151,173.4c5-1.1,5.7,1.5,5.9,5.8c0.1,4.8-1.7,5.8-6.1,5.9c-4.8,0.1-5.8-1.6-5.9-6.1
		C144.8,174.3,146.3,172.5,151,173.4z"/>
	<path fill="#466182" d="M173.9,173.4c4.5-0.9,6.4,0.5,6.2,5.5c-0.1,4.3-0.8,6.4-5.7,6.2c-4.3-0.1-6.4-0.8-6.2-5.8
		C168.4,175.2,168.7,172.3,173.9,173.4z"/>
	<path fill="#466182" d="M197.8,184.9c-4.5,0.9-6.4-0.5-6.2-5.5c0.1-4.3,0.8-6.4,5.7-6.2c4.3,0.1,6.4,0.8,6.2,5.8
		C203.3,183.1,203,186.1,197.8,184.9z"/>
</g>
</svg>
