<?xml version="1.0" encoding="utf-8"?>
<!-- Generator: Adobe Illustrator 20.1.0, SVG Export Plug-In . SVG Version: 6.00 Build 0)  -->
<svg version="1.1" baseProfile="tiny" id="Слой_1"
	 xmlns="http://www.w3.org/2000/svg" xmlns:xlink="http://www.w3.org/1999/xlink" x="0px" y="0px" viewBox="0 0 2500 2900"
	 xml:space="preserve">
<g>
	<path fill="#466182" d="M746.8,53.1c7.7,30.2,39.9,36.5,59,40.9c34.2,7.8,55.7,44.3,94.2,37.2c3.7-0.7,11.7,3.5,11.9,6
		c5.2,50.3,39.3,35.7,69.3,32.1c8.6-1,20.4-3.9,24.8,7.9c6.3,16.8-0.3,36.2-11.2,43.9c-29,20.5-42.5,59.6-78,65.1
		c1.9,51.9,51.3,101.1-4.5,150.9c-7.4,6.6-11.9,28.7-6.9,34.9c31.5,38.8,3.6,61.2-20.8,83.9c-15.6,14.5-12.4,31.7-12.4,48.9
		c-0.3,57.2-11.3,112.6-28,166.9c-26.6,86.3-35.2,95.1-122.5,90.7c-47.2-2.4-56,15.2-53.3,56.4c1.3,19.8,15,21.8,24.7,30.4
		c20.2,17.8,67,17.1,44.6,64.7c-1.2,2.6,2.8,11.1,5.4,11.6c46,9.1,34.5,48.1,43.3,78.2c40.6,137.9,66.6,280.8,132.7,410
		c40.1,78.3,93.1,148.6,148.8,216.7c19.9,24.3,42.2,48.2,55.5,76.1c22.4,47.2,60,46.5,100.3,39.2c105.9-19.2,213.2-27.8,320.1-34.9
		c106.6-7.1,207.4,34.4,308.5,61c166.2,43.7,334.5,82,494.3,148.3c45.3,18.8,88.8,38.8,127.3,69.1c0,6.4,0,12.9,0,19.3
		c-21.1,10.3-43.6,18.5-63.1,31.3c-173,113.7-361.2,184.7-569,204c10.5,27.4,29.2,32.1,55.3,25.7c16.5-4.1,31.7-13.3,50.4-10.2
		c184.8,30.6,258.5,229.6,172.8,377.8c-35.7,61.7-92.2,94.3-157.8,114.5c-41.8,0-83.6,0-125.4,0c-143.4-64.7-179.2-227.9-120.5-356
		c9.5-20.8,5.9-30.2-6.8-47.9c-61.2-85.5-159-92.3-247.2-123.3c-10.5,85.8-21.2,168.7-30.4,251.8c-2,17.5-3.6,34-25,33.3
		c-25-0.8-25.1-21-23.4-39c3.6-37.9,8.5-75.6,13.2-117c-52.1,19.4-103.6,11.1-153.5,20c-26.1,4.7-32.1,10.1-35,36.1
		c-5.2,46.5-17.5,92.3-28.5,138c-3.1,12.8-10.7,26.7-28.5,24.3c-19.2-2.6-20.3-17.1-18.8-32.2c0.9-9.4,2.1-18.8,4-28
		c24.3-113.4,48-226.9,73.6-340c5.3-23.4-2.7-30.7-23.2-38.4c-27.4-10.3-58.4-14.1-79.3-38.6c-68.9-80.8-137.8-161.6-207.2-242
		c-57.8-66.9-116.4-133.2-179.3-205c-5.6,26.3-12.9,48.3-10.5,61.6c6,33.8-29.8,46.9-28.1,76.5c9,155.7,18,311.4,24.8,467.2
		c2.9,67.4-0.7,135.1,1.4,202.5c0.5,14.6-20.9,25.1,1.6,46.7c29.5,28.3,53.1,36.4,89.8,20.6c19.7-8.5,43.4-1.6,65-10.8
		c8-3.4,26.1,5.3,32.8,13.8c9.2,11.8-1.5,23.6-11.3,32.6c-25.2,23-52.9,37.6-88.7,39.4c-65.8,3.3-128.6-34.1-196.3-11.6
		c-15,5-46.1-4.8-36.1-28.8c10.4-25,10.4-50.2,14.7-74.7c19-108.5,40.1-217.3,48.5-326.9c8.5-109.8,3.5-220.7-8-330.7
		c-8.5-81.2-8.8-81.2-83.6-95.5c-25.9-5-48.6,14-75.1,9.2c-20.5-3.7-32.1,5.8-34.6,28.8c-8.5,76.8-18.8,153.4-28.5,230.1
		c-4.9,39.1,0.2,83.3-16.6,116.3c-59.7,116.6-81.6,251.8-173.1,352.6c-2,2.2-0.6,8.6,0.7,12.5c12.9,40.5,29.9,75.4,80.5,79.5
		c19.6,1.6,39.2,10.7,57.5,19.3c11.2,5.3,33.5,4.1,29,23.3c-2.8,12.1-16.4,20.6-32,25.4c-73.9,22.5-123.2-14.9-169-64.5
		c-8.7-9.4-10.5-25.2-31-23.8c-30.6,2-56.8-15.4-83.7-28.1c0-12.9,0-25.7,0-38.6c7.4-5.9,17.5-10.2,21.6-17.9
		c43-78.5,96.7-150.9,149.7-221.6c89.6-119.5,112.8-252.5,118.6-394.3c3.8-92.8-6-184.3-19.9-275.6c-7-45.8-11.2-93.9-59.1-118.8
		c-33.8-17.6-56.4-47.1-81.3-73.6c-39.2-41.6-52.8-89.7-32.2-147.4c21.3-59.5,48.8-115.8,76.6-172.1c31.9-64.5,44-142.3,116.2-181.3
		c3.6-1.9,6.4-6.1,8.3-9.9c20-40.3,44.5-47.9,77.8-23.9c7.4,5.3,16.5,8.1,18-3.1c6.8-49.7,32.2-98.7,18.2-149.3
		c-32.4-117.6-110.2-212.2-174.4-312c-21.5-33.4-38.3-70.3-46.4-102.8c-6.6-26.7-28.7-70.9,4.1-99.7c37.4-32.9,55.7-71.6,55.8-121.2
		c0-21.7,15-37.1,36.9-35.5c25.6,1.9,46.7,5.2,61-24.4c4.4-9.2,31.3-25.7,41-11.6c29.4,42.5,57.5,18.3,89.6,7.4
		c18.6-6.3,38.4-15.2,60.1-11.1c14.5,2.7,24.2-5.3,29.1-19C669.6,53.1,708.2,53.1,746.8,53.1z M1078.3,2086.2
		c4.3,3.1,8.6,6.3,12.9,9.4c4.9-8,2.3-13.4-5.8-16.8c-16.4-55.4-26-114.1-51-165.3c-25.6-52.2,1.7-47.2,35-46.4
		c29.7,0.7,39.2-6.6,17-34.4c-38.2-47.9-76.9-95.8-109.6-147.4c-22.7-35.8-46.5-49.6-83-26.3c-15.8,10.1-33-3.3-33.3-5.4
		c-5.6-39.6-37.1-35.7-63.9-41.7c-14.6-3.3-24.6-13.3-20.6-31.4c3.9-17.1,13.7-23.8,31-21.3c36.3,5.3,34.9-10.2,27.8-40
		c-12.3-51.9-47.2-94.3-55.5-159.9c-2.9,30.1-12.6,44.5-13.9,62.7c-4.3,60.1-6.5,121.2-19.7,179.5c-15.5,68-4.6,120.7,54.9,160.7
		c11.7,7.9,21,19.8,30.3,30.8C913.4,1890.7,995.8,1988.5,1078.3,2086.2z M1230.5,2412.6c48.6,15.8,94.8-6.4,141.8-4.7
		c21.3,0.8,28.7-4.3,31.8-28.2c8.9-67.9,10.9-67.6-53.5-89.4c-20.7-7-42-12.9-61.7-22.1c-24.6-11.5-28.2-2.5-31.6,21
		C1251.2,2330.6,1239.7,2371.3,1230.5,2412.6z M299.5,1208.3c-7.8,28.2-12,47.8-18.8,66.5c-7.5,20.5-18.5,39.8-26.1,60.3
		c-21.9,58.8,3.2,102.9,66.8,118.8C314.3,1375.3,307.3,1296.7,299.5,1208.3z M1688.9,2349.8c-1.5,3.5-3.1,7.1-4.6,10.6
		c18.7,17.3,37.7,34.3,56.1,52.1c10.9,10.6,21.3,21.8,34.6,4.1c11-14.7,43.4-10,39.6-32c-2.6-14.9-19.4-33.6-41.2-34.4
		C1745.3,2349,1717.1,2349.8,1688.9,2349.8z"/>
	<path fill="#FEFEFE" d="M1085.3,2078.8c8.1,3.5,10.7,8.9,5.8,16.8c-4.3-3.1-8.6-6.3-12.9-9.4
		C1080.6,2083.8,1082.9,2081.3,1085.3,2078.8z"/>
</g>
</svg>
